Description

Poster: http://cdn.piczend.com/image/msoze5cwlxc0huttowikwq0kw.jpeg
Release date: 2013
Genre: Action
Plot: A Marine must do whatever it takes to save his kidnapped niece and stop a terrorist attack masterminded by a radical militia group.
--------------------------------

Runtime: 1 h 26 min
Rating: N/A/10
Votes: N/A
Writer(s)/Director(s): Scott Wiper, Declan O'Brien/Scott Wiper
Actors: Neal McDonough, Ashley Bell, Ben Cotton, Michael Eklund
Trailer: http://www.imdb.com/video/imdb/vi4281247513/

Screenshots:
 
http://cdn.piczend.com/image/fw9cbrwvvxrsazlbwtlgh07qh.jpeg
 
http://cdn.piczend.com/image/lyfydltzkv0bslxfdf6th8faj.jpeg
 
http://cdn.piczend.com/image/m89jphvenkhy37jpyb89yedta.jpeg
 
http://cdn.piczend.com/image/xay31hfzhefp092agrud0kr1i.jpeg


Mediainfo:
General
Complete name : 	The Marine: Homefront (2013) DVDRip 352p [Zend]/The Marine: Homefront (2013) DVDRip 352p [Zend].mp4
Format : 	MPEG-4
Format profile : 	Base Media
Codec ID : 	isom
File size : 	1.03 GiB
Duration : 	1h 30mn
Overall bit rate : 	1 630 Kbps
Writing application : 	Lavf53.21.1

Video
ID : 	1
Format : 	AVC
Format/Info : 	Advanced Video Codec
Format profile : 	Main@L3.0
Format settings, CABAC : 	Yes
Format settings, ReFrames : 	3 frames
Codec ID : 	avc1
Codec ID/Info : 	Advanced Video Coding
Duration : 	1h 30mn
Bit rate : 	1 500 Kbps
Width : 	624 pixels
Height : 	352 pixels
Display aspect ratio : 	16:9
Frame rate mode : 	Constant
Frame rate : 	23.976 fps
Color space : 	YUV
Chroma subsampling : 	4:2:0
Bit depth : 	8 bits
Scan type : 	Progressive
Bits/(Pixel*Frame) : 	0.285
Stream size : 	966 MiB (92%)
Writing library : 	x264 core 123 r2189 35cf912
Encoding settings : 	cabac=1 / ref=3 / deblock=1:0:0 / analyse=0x1:0x111 / me=hex / subme=7 / psy=1 / psy_rd=1.00:0.00 / mixed_ref=0 / me_range=16 / chroma_me=1 / trellis=1 / 8x8dct=0 / cqm=0 / deadzone=21,11 / fast_pskip=1 / chroma_qp_offset=-2 / threads=6 / sliced_threads=0 / nr=0 / decimate=1 / interlaced=0 / bluray_compat=0 / constrained_intra=0 / bframes=3 / b_pyramid=0 / b_adapt=1 / b_bias=0 / direct=1 / weightb=0 / open_gop=1 / weightp=2 / keyint=250 / keyint_min=23 / scenecut=40 / intra_refresh=0 / rc_lookahead=40 / rc=abr / mbtree=1 / bitrate=1500 / ratetol=1.0 / qcomp=0.60 / qpmin=0 / qpmax=69 / qpstep=4 / ip_ratio=1.25 / aq=1:1.00

Audio
ID : 	2
Format : 	MPEG Audio
Format version : 	Version 1
Format profile : 	Layer 3
Mode : 	Joint stereo
Mode extension : 	MS Stereo
Codec ID : 	6B
Duration : 	1h 30mn
Bit rate mode : 	Constant
Bit rate : 	128 Kbps
Channel(s) : 	2 channels
Sampling rate : 	48.0 KHz
Compression mode : 	Lossy
Delay relative to video : 	42ms
Stream size : 	82.5 MiB (8%)
Writing library : 	LAME3.98
